<?xml version="1.0" encoding="UTF-8" standalone="no"?>
<!DOCTYPE svg PUBLIC "-//W3C//DTD SVG 1.1//EN"
 "http://www.w3.org/Graphics/SVG/1.1/DTD/svg11.dtd">
<!-- Generated by graphviz version 2.50.0 (0)
 -->
<!-- Pages: 1 -->
<svg width="749pt" height="293pt"
 viewBox="0.00 0.00 748.50 293.00" xmlns="http://www.w3.org/2000/svg" xmlns:xlink="http://www.w3.org/1999/xlink">
<g id="graph0" class="graph" transform="scale(1 1) rotate(0) translate(4 289)">
<polygon fill="white" stroke="transparent" points="-4,4 -4,-289 744.5,-289 744.5,4 -4,4"/>
<!-- 1 -->
<g id="node1" class="node">
<title>1</title>
<polygon fill="bisque" stroke="black" points="740.5,-36 498.5,-36 494.5,-32 494.5,0 736.5,0 740.5,-4 740.5,-36"/>
<polyline fill="none" stroke="black" points="736.5,-32 494.5,-32 "/>
<polyline fill="none" stroke="black" points="736.5,-32 736.5,0 "/>
<polyline fill="none" stroke="black" points="736.5,-32 740.5,-36 "/>
<text text-anchor="start" x="506.5" y="-13.8" font-family="Courier,monospace" font-size="14.00">ao</text>
<text text-anchor="start" x="529.5" y="-14.8" font-family="Courier,monospace" font-weight="bold" font-size="14.00">IOC:CALC:WriteToHardware</text>
</g>
<!-- 2 -->
<g id="node2" class="node">
<title>2</title>
<polygon fill="white" stroke="black" points="627,-195 360,-195 360,-72 627,-72 627,-195"/>
<text text-anchor="start" x="373.5" y="-175.3" font-family="Courier,monospace" font-size="14.00">calc</text>
<text text-anchor="start" x="440.5" y="-176.3" font-family="Courier,monospace" font-weight="bold" font-size="14.00">IOC:CALC:Calculate</text>
<polygon fill="none" stroke="black" points="370.5,-146.5 370.5,-167.5 410.5,-167.5 410.5,-146.5 370.5,-146.5"/>
<text text-anchor="start" x="373.5" y="-154.3" font-family="Courier,monospace" font-weight="bold" font-size="14.00">FLNK</text>
<polygon fill="none" stroke="black" points="412.5,-146.5 412.5,-167.5 617.5,-167.5 617.5,-146.5 412.5,-146.5"/>
<text text-anchor="start" x="415.5" y="-153.3" font-family="Courier,monospace" font-size="14.00">IOC:CALC:WriteToHardware</text>
<polygon fill="none" stroke="black" points="370.5,-123.5 370.5,-144.5 410.5,-144.5 410.5,-123.5 370.5,-123.5"/>
<text text-anchor="start" x="373.5" y="-131.3" font-family="Courier,monospace" font-weight="bold" font-size="14.00">INPA</text>
<polygon fill="none" stroke="black" points="412.5,-123.5 412.5,-144.5 617.5,-144.5 617.5,-123.5 412.5,-123.5"/>
<text text-anchor="start" x="424" y="-130.3" font-family="Courier,monospace" font-size="14.00">IOC:CALC:InputA CPP MS</text>
<polygon fill="none" stroke="black" points="370.5,-100.5 370.5,-121.5 410.5,-121.5 410.5,-100.5 370.5,-100.5"/>
<text text-anchor="start" x="373.5" y="-108.3" font-family="Courier,monospace" font-weight="bold" font-size="14.00">INPB</text>
<polygon fill="none" stroke="black" points="412.5,-100.5 412.5,-121.5 617.5,-121.5 617.5,-100.5 412.5,-100.5"/>
<text text-anchor="start" x="440.5" y="-107.3" font-family="Courier,monospace" font-size="14.00">IOC:CALC:InputB CA</text>
<polygon fill="none" stroke="black" points="370.5,-77.5 370.5,-98.5 410.5,-98.5 410.5,-77.5 370.5,-77.5"/>
<text text-anchor="start" x="373.5" y="-85.3" font-family="Courier,monospace" font-weight="bold" font-size="14.00">INPC</text>
<polygon fill="none" stroke="black" points="412.5,-77.5 412.5,-98.5 617.5,-98.5 617.5,-77.5 412.5,-77.5"/>
<text text-anchor="start" x="420" y="-84.3" font-family="Courier,monospace" font-size="14.00">IOC:CALC:InputC CPP NMS</text>
</g>
<!-- 2&#45;&gt;1 -->
<g id="edge1" class="edge">
<title>2:e&#45;&gt;1</title>
<path fill="none" stroke="black" d="M618.5,-157.5C662.72,-157.5 642.89,-86.02 628.21,-45.76"/>
<polygon fill="black" stroke="black" points="631.43,-44.39 624.63,-36.26 624.88,-46.85 631.43,-44.39"/>
</g>
<!-- 3 -->
<g id="node3" class="node">
<title>3</title>
<polygon fill="white" stroke="black" points="181,-285 0,-285 0,-231 181,-231 181,-285"/>
<text text-anchor="start" x="17.5" y="-265.8" font-family="Courier,monospace" font-size="14.00">ai</text>
<text text-anchor="start" x="45.5" y="-266.8" font-family="Courier,monospace" font-weight="bold" font-size="14.00">IOC:CALC:InputA</text>
<polygon fill="none" stroke="black" points="10.5,-237 10.5,-258 41.5,-258 41.5,-237 10.5,-237"/>
<text text-anchor="start" x="13.5" y="-244.8" font-family="Courier,monospace" font-weight="bold" font-size="14.00">VAL</text>
<polygon fill="none" stroke="black" points="43.5,-237 43.5,-258 171.5,-258 171.5,-237 43.5,-237"/>
<text text-anchor="start" x="95" y="-243.8" font-family="Courier,monospace" font-size="14.00">0.0</text>
</g>
<!-- 3&#45;&gt;2 -->
<g id="edge2" class="edge">
<title>3:e&#45;&gt;2:w</title>
<path fill="none" stroke="darkblue" stroke-width="2" d="M172.5,-247C182.88,-247 181.08,-237.06 189.5,-231 260.38,-180.01 277.46,-137.83 359.45,-134.69"/>
<polygon fill="darkblue" stroke="darkblue" stroke-width="2" points="359.57,-138.19 369.5,-134.5 359.44,-131.19 359.57,-138.19"/>
<text text-anchor="middle" x="232.75" y="-178.59" font-family="Courier,monospace" font-size="14.00">CPP MS</text>
</g>
<!-- 4 -->
<g id="node4" class="node">
<title>4</title>
<polygon fill="white" stroke="black" points="380,-285 199,-285 199,-231 380,-231 380,-285"/>
<text text-anchor="start" x="216.5" y="-265.8" font-family="Courier,monospace" font-size="14.00">ai</text>
<text text-anchor="start" x="244.5" y="-266.8" font-family="Courier,monospace" font-weight="bold" font-size="14.00">IOC:CALC:InputB</text>
<polygon fill="none" stroke="black" points="209.5,-237 209.5,-258 240.5,-258 240.5,-237 209.5,-237"/>
<text text-anchor="start" x="212.5" y="-244.8" font-family="Courier,monospace" font-weight="bold" font-size="14.00">VAL</text>
<polygon fill="none" stroke="black" points="242.5,-237 242.5,-258 370.5,-258 370.5,-237 242.5,-237"/>
<text text-anchor="start" x="294" y="-243.8" font-family="Courier,monospace" font-size="14.00">1.0</text>
</g>
<!-- 4&#45;&gt;2 -->
<g id="edge3" class="edge">
<title>4:e&#45;&gt;2:w</title>
<path fill="none" stroke="darkcyan" d="M371.5,-247C394.62,-247 370.86,-218.11 370.5,-195 369.98,-161.7 340.07,-121.02 359.48,-112.23"/>
<polygon fill="darkcyan" stroke="darkcyan" points="360.24,-115.65 369.5,-110.5 359.05,-108.75 360.24,-115.65"/>
<text text-anchor="middle" x="359.99" y="-183.21" font-family="Courier,monospace" font-size="14.00">CA</text>
</g>
<!-- 5 -->
<g id="node5" class="node">
<title>5</title>
<polygon fill="white" stroke="black" points="579,-285 398,-285 398,-231 579,-231 579,-285"/>
<text text-anchor="start" x="415.5" y="-265.8" font-family="Courier,monospace" font-size="14.00">ai</text>
<text text-anchor="start" x="443.5" y="-266.8" font-family="Courier,monospace" font-weight="bold" font-size="14.00">IOC:CALC:InputC</text>
<polygon fill="none" stroke="black" points="408.5,-237 408.5,-258 439.5,-258 439.5,-237 408.5,-237"/>
<text text-anchor="start" x="411.5" y="-244.8" font-family="Courier,monospace" font-weight="bold" font-size="14.00">VAL</text>
<polygon fill="none" stroke="black" points="441.5,-237 441.5,-258 569.5,-258 569.5,-237 441.5,-237"/>
<text text-anchor="start" x="493" y="-243.8" font-family="Courier,monospace" font-size="14.00">2.0</text>
</g>
<!-- 5&#45;&gt;2 -->
<g id="edge4" class="edge">
<title>5:e&#45;&gt;2:w</title>
<path fill="none" stroke="darkgreen" stroke-width="2" d="M570.5,-247C577.62,-247 574.24,-236.32 569.5,-231 509.75,-163.85 428.44,-263.71 370.5,-195 342.11,-161.33 324.61,-98.38 359.48,-88.75"/>
<polygon fill="darkgreen" stroke="darkgreen" stroke-width="2" points="360.01,-92.21 369.5,-87.5 359.14,-85.26 360.01,-92.21"/>
<text text-anchor="middle" x="440.31" y="-217.39" font-family="Courier,monospace" font-size="14.00">CPP NMS</text>
</g>
</g>
</svg>
